PathFileType	4	(X/Y/Z)	./resultDataOpenSim/trcMotMarkerGrf/sub10/qtm-03-05.trc
DataRate	CameraRate	NumFrames	NumMarkers	Units	OrigDataRate	OrigDataStartFrame	OrigNumFrames
250.000000	250.000000	14	24	m	250.000000	126	502
Frame#	Time	L.Toe.Tip			R.Toe.Tip			L.Ankle.Lat			R.Ankle.Lat			L.Ankle.Med			R.Ankle.Med			L.Heel			R.Heel			L.Knee.Lat			R.Knee.Lat			L.Knee.Med			R.Knee.Med			L.Thigh.Upper			R.Thigh.Upper			L.ASIS			R.ASIS			V.Sacral			L.Acromium			R.Acromium			C7			L.Elbow			R.Elbow			L.Wrist.Lat			R.Wrist.Lat
		X1	Y1	Z1	X2	Y2	Z2	X3	Y3	Z3	X4	Y4	Z4	X5	Y5	Z5	X6	Y6	Z6	X7	Y7	Z7	X8	Y8	Z8	X9	Y9	Z9	X10	Y10	Z10	X11	Y11	Z11	X12	Y12	Z12	X13	Y13	Z13	X14	Y14	Z14	X15	Y15	Z15	X16	Y16	Z16	X17	Y17	Z17	X18	Y18	Z18	X19	Y19	Z19	X20	Y20	Z20	X21	Y21	Z21	X22	Y22	Z22	X23	Y23	Z23	X24	Y24	Z24

126	0.5	-0.52466923	0.062606037	-0.11431233	-0.68883441	0.041245118	0.060030998	-0.64316063	0.12790607	-0.13042635	-0.83244822	0.052325302	0.085662444	-0.62474522	0.14166079	-0.048663237	-0.80768922	0.082956692	0.005372846	-0.70981676	0.1127838	-0.079601981	-0.87769513	0.028647711	0.033676599	-0.51798261	0.49658815	-0.13849882	-0.75364838	0.4506479	0.13981977	-0.49429405	0.46876813	-0.020102487	-0.74717274	0.45489203	0.01181269	-0.67318311	0.83839004	-0.18528555	-0.73430203	0.86760996	0.19409978	-0.6319924	0.94980339	-0.11242582	-0.6518072	0.95677857	0.12934329	-0.83879706	0.96053396	-0.0092304179	-0.70010722	1.429432	-0.1491936	-0.70445088	1.4132961	0.17424229	-0.78482607	1.4497043	0.0076874291	-0.83039689	1.1203939	-0.23849312	-0.77599661	1.0672911	0.22103286	-0.7295248	0.89669268	-0.2658152	-0.63169879	0.87223605	0.26302853
127	0.504	-0.504813	0.062561053	-0.11325258	-0.68875965	0.041245764	0.060062409	-0.62526039	0.12399055	-0.12939923	-0.83251683	0.052340323	0.08561356	-0.60720095	0.1383594	-0.047389569	-0.80759198	0.082964629	0.0053456079	-0.69135414	0.10673727	-0.078627007	-0.87771756	0.028697614	0.033564887	-0.51056433	0.49674038	-0.1376684	-0.75205674	0.45040791	0.13997779	-0.48683768	0.46919645	-0.019481564	-0.74529839	0.45451945	0.012011829	-0.66648415	0.83826483	-0.18481823	-0.73068938	0.86714295	0.19441118	-0.62606583	0.94939947	-0.11146737	-0.6473484	0.95605643	0.13037553	-0.83272833	0.95962711	-0.0095371318	-0.69489708	1.4288748	-0.14855324	-0.69946495	1.4126201	0.17486888	-0.77965899	1.4491656	0.0082949117	-0.82666014	1.120996	-0.23791989	-0.76878511	1.0658481	0.22221008	-0.72896419	0.89639929	-0.26763976	-0.62073072	0.87278737	0.26178648
128	0.508	-0.48494413	0.062694063	-0.11222366	-0.68866505	0.04124582	0.060089598	-0.60730518	0.12018973	-0.12839217	-0.83255028	0.052351449	0.085563804	-0.58934989	0.13527678	-0.046243478	-0.80748792	0.082958376	0.0052995811	-0.67237756	0.10084624	-0.07730676	-0.87774712	0.028749252	0.033392376	-0.50323315	0.49666215	-0.13683499	-0.75046899	0.45016932	0.14013631	-0.47952454	0.46942958	-0.018882911	-0.74337788	0.45414799	0.012181341	-0.65985811	0.83805975	-0.18435652	-0.72705207	0.86663685	0.19470917	-0.62008441	0.9489502	-0.11054836	-0.64300047	0.95528023	0.13133373	-0.82596416	0.95858327	-0.010087547	-0.68966617	1.4282478	-0.14792	-0.69445442	1.411881	0.17549972	-0.77448234	1.44857	0.0089030765	-0.82293687	1.1215358	-0.23741158	-0.76155006	1.0643373	0.22334763	-0.72836243	0.89609812	-0.26941016	-0.60975264	0.8733528	0.2605264
129	0.512	-0.46510958	0.062988842	-0.11124409	-0.68857688	0.041244087	0.060109583	-0.58927053	0.11652909	-0.12737703	-0.83255256	0.052356915	0.085505813	-0.57135083	0.13239007	-0.045243298	-0.80737588	0.082928445	0.0052350611	-0.65313493	0.095165073	-0.075774572	-0.87778465	0.028817315	0.03311759	-0.49600666	0.49636848	-0.13601829	-0.74887351	0.44993409	0.14029706	-0.47223567	0.46949051	-0.01824283	-0.74140164	0.45377391	0.012316176	-0.65321793	0.8377908	-0.18388987	-0.72334889	0.86607837	0.19494795	-0.6139496	0.94847221	-0.10963933	-0.63867514	0.95446885	0.13224078	-0.8190443	0.95745036	-0.011070034	-0.68444273	1.4275826	-0.14732067	-0.68941985	1.4110751	0.17613118	-0.76929337	1.4479167	0.0095047472	-0.81917224	1.1220052	-0.23693585	-0.75423476	1.0627339	0.22440819	-0.72772089	0.89579287	-0.27112846	-0.59878469	0.87393215	0.25924681
130	0.516	-0.44535863	0.063418069	-0.11031768	-0.68849283	0.04125275	0.060123364	-0.57117975	0.11302142	-0.12632788	-0.83253706	0.05235653	0.085435299	-0.55338488	0.12965758	-0.044338434	-0.80722871	0.082875	0.005166414	-0.6339402	0.089722278	-0.074245479	-0.87782148	0.028897935	0.032780628	-0.48889585	0.49589516	-0.13525591	-0.74724111	0.44970219	0.14046166	-0.46500977	0.46938411	-0.01758096	-0.73937032	0.45339574	0.012408266	-0.64650108	0.83747076	-0.18342236	-0.71947687	0.8654375	0.19501107	-0.60771053	0.94796279	-0.10874542	-0.63432974	0.95363808	0.13311077	-0.81294917	0.9563677	-0.012485399	-0.67925524	1.4269084	-0.14677893	-0.68437137	1.4102007	0.17675262	-0.76409221	1.4472042	0.010096226	-0.81539834	1.1224119	-0.23650541	-0.7467941	1.061037	0.22536479	-0.72703419	0.89548373	-0.27279502	-0.58788488	0.87453013	0.25796152
131	0.52	-0.42572164	0.063952782	-0.10942927	-0.68840603	0.041278187	0.060118921	-0.55308315	0.10966969	-0.12524883	-0.83250829	0.05235454	0.085353611	-0.53549463	0.12709056	-0.043400158	-0.80704691	0.082814428	0.0050858137	-0.61489639	0.084583626	-0.072782126	-0.87784415	0.028971133	0.032478351	-0.48190071	0.49526642	-0.13458461	-0.74554114	0.4494659	0.14062773	-0.45792365	0.46911155	-0.016945588	-0.73729149	0.4530132	0.012450363	-0.63971789	0.83710195	-0.18296844	-0.71532321	0.86467235	0.19477368	-0.60146695	0.94741039	-0.10789444	-0.6299936	0.95279042	0.13394694	-0.80808915	0.95541675	-0.014155039	-0.67407708	1.4262091	-0.1462822	-0.67931471	1.4092596	0.17735341	-0.75888188	1.4464345	0.01067551	-0.8117585	1.1227832	-0.23624994	-0.73923535	1.0592814	0.226227	-0.72628909	0.89516971	-0.27440306	-0.57709902	0.87515265	0.2566834
132	0.524	-0.40620697	0.064568819	-0.10854578	-0.68832197	0.041301453	0.060077319	-0.53501196	0.10648335	-0.12416298	-0.83245976	0.052358273	0.085261341	-0.51763089	0.12474244	-0.042308647	-0.80685932	0.082767581	0.0049663243	-0.59592025	0.079819397	-0.07132798	-0.87784682	0.029025079	0.032264479	-0.47501489	0.49447613	-0.13400948	-0.74380792	0.44920479	0.14078252	-0.45101233	0.46867749	-0.016365835	-0.7351844	0.45262069	0.012435602	-0.63293084	0.83667107	-0.1825234	-0.7109242	0.86378339	0.19428031	-0.59520425	0.94681803	-0.10709837	-0.62576371	0.9519107	0.13473757	-0.8039424	0.95453036	-0.015981608	-0.66882875	1.4254271	-0.14578407	-0.67424092	1.4082566	0.17793095	-0.75366689	1.4456101	0.01123626	-0.80830109	1.1231367	-0.23621111	-0.73161688	1.0575068	0.2270349	-0.72548992	0.89485098	-0.27594916	-0.56640876	0.87580205	0.25541384
133	0.528	-0.38682244	0.065233993	-0.10762475	-0.68824591	0.041291195	0.059994939	-0.5169735	0.10348768	-0.12308786	-0.83238343	0.052373207	0.085153208	-0.49978923	0.12263312	-0.041069768	-0.80668143	0.08273496	0.0047992255	-0.57688965	0.075442955	-0.069851292	-0.87783529	0.029065919	0.032116662	-0.46823692	0.49350744	-0.13351068	-0.74225427	0.44889514	0.14090149	-0.44427688	0.46808553	-0.015847745	-0.73307647	0.45220887	0.012351694	-0.62618886	0.83615907	-0.18205465	-0.70660854	0.86287403	0.1939011	-0.58887133	0.94620028	-0.10635691	-0.62172552	0.95098311	0.13546641	-0.79965294	0.9535914	-0.018022108	-0.66345967	1.4245255	-0.14525073	-0.66915201	1.4071974	0.17849386	-0.74845228	1.44473	0.011770791	-0.80491692	1.1234636	-0.23627539	-0.72399049	1.0557251	0.22781654	-0.72467693	0.89452672	-0.27744754	-0.55576526	0.87648216	0.25415912
134	0.532	-0.3675937	0.065889062	-0.1066283	-0.68817668	0.04123483	0.059882564	-0.49895805	0.10072043	-0.12202389	-0.83227405	0.052400653	0.085021689	-0.48202617	0.12073037	-0.03978622	-0.80650444	0.082697362	0.0046009584	-0.55778979	0.07144326	-0.068400817	-0.87781893	0.029104681	0.03199209	-0.46156969	0.49235007	-0.13307379	-0.74121522	0.44854054	0.14097935	-0.43769161	0.46733688	-0.015376558	-0.73093455	0.4517844	0.012204939	-0.6194595	0.8355645	-0.18152743	-0.70282822	0.86209445	0.19414223	-0.58248904	0.9455604	-0.10566514	-0.61779573	0.95002296	0.13614071	-0.79480233	0.952649	-0.020085642	-0.65798378	1.423516	-0.14468393	-0.66407009	1.4060847	0.17905153	-0.7432396	1.4437924	0.01227609	-0.80147138	1.1237448	-0.2363047	-0.71636496	1.0539247	0.22856874	-0.72391496	0.8941942	-0.27892895	-0.54515575	0.87719751	0.25293811
135	0.536	-0.34855804	0.066456904	-0.10552357	-0.68811077	0.041149547	0.059756797	-0.48094884	0.098214733	-0.12095602	-0.83213074	0.052439198	0.084866085	-0.46439612	0.11900812	-0.03853764	-0.80631627	0.082641348	0.0043873026	-0.53875596	0.067844611	-0.067035506	-0.8778032	0.029146912	0.031868318	-0.45500851	0.49099844	-0.13271393	-0.74072068	0.44818979	0.14109062	-0.43119431	0.46642895	-0.014911203	-0.72860036	0.45139231	0.012053035	-0.61268467	0.83490327	-0.18093757	-0.69966579	0.86148548	0.19508965	-0.57611295	0.94488163	-0.10500651	-0.61370357	0.94908463	0.13679613	-0.78999898	0.95209557	-0.021179574	-0.65243814	1.4224284	-0.14410218	-0.65901036	1.4049172	0.17960614	-0.73802403	1.4427998	0.012754681	-0.79790668	1.1239716	-0.23624193	-0.70872562	1.0520948	0.22927767	-0.72323837	0.89385084	-0.28040998	-0.5345948	0.87794628	0.25175516
136	0.54	-0.32974142	0.066883477	-0.10427337	-0.6880434	0.041065563	0.059639806	-0.46295573	0.095981876	-0.1198749	-0.83196311	0.052484462	0.084696993	-0.44691662	0.11747662	-0.03734107	-0.80611013	0.082569593	0.0041663573	-0.51993823	0.064700092	-0.065740715	-0.87778949	0.029194989	0.03174329	-0.4485317	0.48945178	-0.13246015	-0.74024825	0.44790131	0.141369	-0.42471416	0.46535247	-0.014404088	-0.72591493	0.45107816	0.01195562	-0.60589034	0.83418673	-0.18031862	-0.69667694	0.86094157	0.19623081	-0.56977637	0.94414573	-0.10436253	-0.60923931	0.94821951	0.137462	-0.78672148	0.95252747	-0.019652503	-0.64685097	1.4212805	-0.14352126	-0.65397524	1.4036945	0.18016204	-0.73279753	1.4417579	0.013212246	-0.79424089	1.1241457	-0.23612214	-0.70106281	1.0502349	0.22993937	-0.7225679	0.89349526	-0.28185288	-0.52407855	0.87872028	0.25058326
137	0.544	-0.31114813	0.067165614	-0.1028416	-0.68797207	0.041000828	0.059549799	-0.44503011	0.094010594	-0.11879178	-0.83179586	0.052528544	0.084529781	-0.42958306	0.11615774	-0.036193322	-0.80587823	0.082491723	0.0039552193	-0.50138543	0.062039724	-0.064460242	-0.87777741	0.029251965	0.031625126	-0.44211929	0.48772368	-0.13230919	-0.73920651	0.44768005	0.14184955	-0.41824782	0.46409738	-0.013862683	-0.7229147	0.45081842	0.011897759	-0.59914941	0.83341721	-0.17971091	-0.69338526	0.86034843	0.19702465	-0.56347181	0.94335392	-0.10372139	-0.60446295	0.9474272	0.13813249	-0.78587383	0.95414631	-0.014627459	-0.64124358	1.4200756	-0.14295072	-0.6489686	1.4024187	0.18072394	-0.72755538	1.4406706	0.013654911	-0.79052692	1.1242726	-0.23603859	-0.69337815	1.0483498	0.2305597	-0.72174667	0.89312788	-0.28318467	-0.51359011	0.87951176	0.24939129
138	0.548	-0.29278259	0.067338192	-0.10120852	-0.68789765	0.040947663	0.05949109	-0.42723327	0.092281757	-0.11772354	-0.83166181	0.052563733	0.084373776	-0.41239816	0.11506487	-0.035098439	-0.80561131	0.082415882	0.0037828064	-0.4830833	0.059850528	-0.063175652	-0.87776507	0.029320354	0.031522498	-0.43578034	0.48583938	-0.13221614	-0.73748457	0.44744378	0.14232796	-0.41189946	0.46266173	-0.013380125	-0.71977236	0.45053806	0.011824846	-0.59246926	0.83259694	-0.1791214	-0.68969804	0.85968089	0.19737595	-0.55716479	0.9425227	-0.10307291	-0.59960609	0.94666022	0.13878167	-0.78632409	0.95620301	-0.0076036471	-0.63563787	1.4188134	-0.14239668	-0.643996	1.4010928	0.18128462	-0.72230217	1.4395391	0.014087473	-0.78681095	1.1243585	-0.23607657	-0.68567574	1.0464427	0.23114397	-0.7207143	0.89275336	-0.28437285	-0.50312767	0.88031951	0.24817004
139	0.552	-0.27467287	0.067446267	-0.099375329	-0.68781891	0.040879667	0.059459258	-0.40960852	0.090785156	-0.11667767	-0.83158314	0.052589266	0.084230045	-0.39538033	0.11420511	-0.034058287	-0.80531183	0.082344936	0.0036619439	-0.46502413	0.058101463	-0.06191668	-0.87774904	0.029401184	0.031437724	-0.42953386	0.48381852	-0.13213404	-0.7353701	0.44703623	0.14242957	-0.40580233	0.46105057	-0.013061683	-0.7165865	0.45018528	0.011715957	-0.58579471	0.8317265	-0.17852131	-0.68577807	0.85896755	0.19747792	-0.55082707	0.94166298	-0.10240979	-0.59484889	0.94587164	0.13939731	-0.78543692	0.9572758	-0.001973174	-0.63005006	1.4174971	-0.14185716	-0.63905707	1.3997199	0.18183388	-0.71705759	1.4383624	0.014512738	-0.78309888	1.1244087	-0.23622651	-0.67795477	1.0445151	0.23169104	-0.71955651	0.89237918	-0.28544915	-0.49269915	0.88114773	0.24692139
